<svg xmlns="http://www.w3.org/2000/svg" width="289.22" height="35" viewBox="0 0 289.22 35"><rect class="svg__rect" x="0" y="0" width="107.43" height="35" fill="#3AC1D0"/><rect class="svg__rect" x="105.43" y="0" width="183.79000000000002" height="35" fill="#88C7D4"/><path class="svg__text" d="M15.69 22L14.22 22L14.22 13.47L16.14 13.47L18.60 20.01L21.06 13.47L22.97 13.47L22.97 22L21.49 22L21.49 19.19L21.64 15.43L19.12 22L18.06 22L15.55 15.43L15.69 19.19L15.69 22ZM28.49 22L26.95 22L30.17 13.47L31.50 13.47L34.73 22L33.18 22L32.49 20.01L29.18 20.01L28.49 22ZM30.83 15.28L29.60 18.82L32.07 18.82L30.83 15.28ZM41.14 22L38.69 22L38.69 13.47L41.21 13.47Q42.34 13.47 43.21 13.97Q44.09 14.48 44.57 15.40Q45.05 16.33 45.05 17.52L45.05 17.52L45.05 17.95Q45.05 19.16 44.57 20.08Q44.08 21.00 43.19 21.50Q42.30 22 41.14 22L41.14 22ZM40.17 14.66L40.17 20.82L41.14 20.82Q42.30 20.82 42.93 20.09Q43.55 19.36 43.56 17.99L43.56 17.99L43.56 17.52Q43.56 16.13 42.96 15.40Q42.35 14.66 41.21 14.66L41.21 14.66L40.17 14.66ZM55.09 22L49.51 22L49.51 13.47L55.05 13.47L55.05 14.66L51.00 14.66L51.00 17.02L54.50 17.02L54.50 18.19L51.00 18.19L51.00 20.82L55.09 20.82L55.09 22ZM68.38 22L65.26 22L65.26 13.47L68.19 13.47Q69.64 13.47 70.39 14.05Q71.15 14.63 71.15 15.78L71.15 15.78Q71.15 16.36 70.83 16.83Q70.51 17.30 69.90 17.56L69.90 17.56Q70.60 17.75 70.97 18.26Q71.35 18.78 71.35 19.51L71.35 19.51Q71.35 20.71 70.58 21.36Q69.81 22 68.38 22L68.38 22ZM66.75 18.15L66.75 20.82L68.39 20.82Q69.09 20.82 69.48 20.47Q69.88 20.13 69.88 19.51L69.88 19.51Q69.88 18.18 68.52 18.15L68.52 18.15L66.75 18.15ZM66.75 14.66L66.75 17.06L68.20 17.06Q68.89 17.06 69.28 16.75Q69.67 16.43 69.67 15.86L69.67 15.86Q69.67 15.23 69.31 14.95Q68.95 14.66 68.19 14.66L68.19 14.66L66.75 14.66ZM77.86 18.86L75.00 13.47L76.64 13.47L78.61 17.51L80.57 13.47L82.21 13.47L79.35 18.86L79.35 22L77.86 22L77.86 18.86ZM92.22 21.85Q91.99 21.63 91.99 21.29Q91.99 20.95 92.21 20.73Q92.43 20.50 92.82 20.50L92.82 20.50Q93.22 20.50 93.44 20.73Q93.65 20.95 93.65 21.29L93.65 21.29Q93.65 21.63 93.44 21.84Q93.22 22.06 92.82 22.06L92.82 22.06Q92.44 22.06 92.22 21.85ZM92.22 16.87Q91.99 16.66 91.99 16.32Q91.99 15.98 92.21 15.75Q92.43 15.53 92.82 15.53L92.82 15.53Q93.22 15.53 93.44 15.75Q93.65 15.98 93.65 16.32L93.65 16.32Q93.65 16.65 93.44 16.87Q93.22 17.09 92.82 17.09L92.82 17.09Q92.44 17.09 92.22 16.87Z" fill="#000000"/><path class="svg__text" d="M121.95 22L119.62 22L119.62 13.60L121.57 13.60L125.28 18.07L125.28 13.60L127.61 13.60L127.61 22L125.66 22L121.95 17.52L121.95 22ZM139.52 22L132.77 22L132.77 13.60L139.36 13.60L139.36 15.44L135.13 15.44L135.13 16.85L138.86 16.85L138.86 18.63L135.13 18.63L135.13 20.17L139.52 20.17L139.52 22ZM151.07 22L144.32 22L144.32 13.60L150.91 13.60L150.91 15.44L146.68 15.44L146.68 16.85L150.41 16.85L150.41 18.63L146.68 18.63L146.68 20.17L151.07 20.17L151.07 22ZM158.23 22L155.87 22L155.87 13.60L158.23 13.60L158.23 17.09L161.48 13.60L164.09 13.60L160.66 17.32L164.27 22L161.51 22L159.11 18.95L158.23 19.90L158.23 22ZM170.76 22L168.38 22L168.38 13.60L170.76 13.60L170.76 16.76L174.00 16.76L174.00 13.60L176.37 13.60L176.37 22L174.00 22L174.00 18.72L170.76 18.72L170.76 22ZM183.91 22L181.53 22L181.53 13.60L183.91 13.60L183.91 22ZM195.47 22L189.09 22L189.09 13.60L191.47 13.60L191.47 20.11L195.47 20.11L195.47 22ZM210.84 22L206.86 22L206.86 13.60L210.84 13.60Q212.22 13.60 213.29 14.12Q214.35 14.63 214.94 15.58Q215.53 16.53 215.53 17.80L215.53 17.80Q215.53 19.07 214.94 20.02Q214.35 20.97 213.29 21.48Q212.22 22 210.84 22L210.84 22ZM209.24 15.50L209.24 20.10L210.74 20.10Q211.82 20.10 212.47 19.49Q213.13 18.88 213.13 17.80L213.13 17.80Q213.13 16.72 212.47 16.11Q211.82 15.50 210.74 15.50L210.74 15.50L209.24 15.50ZM221.68 22L219.25 22L222.96 13.60L225.30 13.60L229.02 22L226.55 22L225.89 20.37L222.34 20.37L221.68 22ZM224.11 15.93L223.03 18.61L225.19 18.61L224.11 15.93ZM235.55 22L233.17 22L233.17 13.60L239.76 13.60L239.76 15.44L235.55 15.44L235.55 17.28L239.26 17.28L239.26 19.12L235.55 19.12L235.55 22ZM245.78 22L243.35 22L247.06 13.60L249.40 13.60L253.12 22L250.65 22L249.99 20.37L246.44 20.37L245.78 22ZM248.21 15.93L247.13 18.61L249.29 18.61L248.21 15.93ZM261.24 22L257.27 22L257.27 13.60L261.24 13.60Q262.63 13.60 263.69 14.12Q264.76 14.63 265.35 15.58Q265.94 16.53 265.94 17.80L265.94 17.80Q265.94 19.07 265.35 20.02Q264.76 20.97 263.69 21.48Q262.63 22 261.24 22L261.24 22ZM259.65 15.50L259.65 20.10L261.15 20.10Q262.23 20.10 262.88 19.49Q263.54 18.88 263.54 17.80L263.54 17.80Q263.54 16.72 262.88 16.11Q262.23 15.50 261.15 15.50L261.15 15.50L259.65 15.50ZM277.41 22L270.67 22L270.67 13.60L277.26 13.60L277.26 15.44L273.02 15.44L273.02 16.85L276.75 16.85L276.75 18.63L273.02 18.63L273.02 20.17L277.41 20.17L277.41 22Z" fill="#000000" x="118.43"/></svg>